<?xml version="1.0" encoding="utf-8"?>
<!-- Generator: Adobe Illustrator 22.1.0, SVG Export Plug-In . SVG Version: 6.00 Build 0)  -->
<svg version="1.1" id="Layer_1" xmlns="http://www.w3.org/2000/svg" xmlns:xlink="http://www.w3.org/1999/xlink" x="0px" y="0px"
	 viewBox="0 0 1366 768" style="enable-background:new 0 0 1366 768;" xml:space="preserve">
<style type="text/css">
	.st0{fill:url(#SVGID_1_);}
	.st1{opacity:0.2;fill:url(#SVGID_2_);}
	.st2{opacity:0.25;fill:url(#SVGID_3_);}
	.st3{opacity:0.2;fill:url(#SVGID_4_);}
</style>
<linearGradient id="SVGID_1_" gradientUnits="userSpaceOnUse" x1="1234.1997" y1="689.9435" x2="35.7229" y2="-149.239">
	<stop  offset="0" style="stop-color:#AD94D6"/>
	<stop  offset="1" style="stop-color:#55B0FF"/>
</linearGradient>
<path class="st0" d="M0,602.9C159.9,729.2,295.2,761.3,389.7,767c187,11.4,286.4-76.1,540.1-131.2c180.7-39.2,334.5-39.1,436.2-32.9
	c0-200,0-400,0-599.9C910.7,3,455.3,3,0,3"/>
<linearGradient id="SVGID_2_" gradientUnits="userSpaceOnUse" x1="-227" y1="55.764" x2="310.9781" y2="55.764">
	<stop  offset="0" style="stop-color:#7C39D6"/>
	<stop  offset="1" style="stop-color:#55B0FF"/>
</linearGradient>
<path class="st1" d="M-211,57.5c-7,27.5-45.4,181,29.6,240.5C-68,387.9,298,257.6,310.6,57.5c7.7-121.8-115.3-274.2-260.8-273
	C-138.9-213.9-207.8,44.9-211,57.5z"/>
<linearGradient id="SVGID_3_" gradientUnits="userSpaceOnUse" x1="1676.0848" y1="470.2919" x2="673.3992" y2="-231.7961">
	<stop  offset="0" style="stop-color:#7C6BD6"/>
	<stop  offset="1" style="stop-color:#55B0FF"/>
</linearGradient>
<path class="st2" d="M1608.9,330.1c-45.4-153.7,147.8-274.5,90.3-353.1C1568.4-201.6,751.2-409,605.7-132.7
	C523.3,23.8,687.4,318.9,893,442.9c57.7,34.8,229.4,47.3,572.9,72.2c78.7,5.7,180.6,11.8,201.9-34.1
	C1685.5,442.9,1630.9,404.7,1608.9,330.1z"/>
<linearGradient id="SVGID_4_" gradientUnits="userSpaceOnUse" x1="1062.005" y1="57.8899" x2="1510.0636" y2="57.8899" gradientTransform="matrix(0.9668 0.2557 -0.2557 0.9668 50.5327 -320.7487)">
	<stop  offset="0" style="stop-color:#465FD6"/>
	<stop  offset="1" style="stop-color:#55B0FF"/>
</linearGradient>
<path class="st3" d="M1506.2,80.7c4.3-20.3,28.8-133.2-40.6-178.5c-104.9-68.5-417.6,21.7-416.5,169.6
	c0.7,90,117.6,204.9,245.2,206.5C1459.7,280.3,1504.2,90,1506.2,80.7z"/>
</svg>
